<svg width="78" height="75" viewBox="0 0 78 75" fill="none" xmlns="http://www.w3.org/2000/svg">
<rect x="1" width="75" height="75" rx="16" fill="url(#paint0_linear)"/>
<g filter="url(#filter0_d)">
<path d="M51.517 11C42.2556 11 32.0172 14.6425 25.0592 17.698C24.8895 17.7725 24.7229 17.8475 24.5548 17.9222C24.4176 17.8723 24.2707 17.8439 24.1171 17.8439H9.65604C8.47756 17.8439 7.52106 18.3466 7.03148 19.2234C6.54208 20.1001 6.59943 21.208 7.18867 22.2634L9.2863 26.02C6.9862 27.4559 5.3674 28.5809 4.56907 29.153C4.21272 29.4085 4 29.8285 4 30.277V38.2233C4 38.6718 4.21272 39.0918 4.56907 39.3473C5.35897 39.9132 6.95149 41.0204 9.21324 42.4348L7.18008 46.1853C6.59232 47.2694 6.54356 48.4 7.04619 49.2873C7.54073 50.16 8.49177 50.6606 9.65571 50.6606H24.5226C24.5852 50.6606 24.6465 50.6545 24.7069 50.6457C24.8245 50.6979 24.9404 50.7502 25.0589 50.8023C26.2956 51.3453 27.6375 51.907 29.0575 52.4633V58.8967C29.0575 61.1586 30.8371 62.9988 33.0243 62.9988H46.2023C48.3895 62.9988 50.1691 61.1586 50.1691 58.8967V57.4728C50.62 57.4892 51.0697 57.5003 51.5165 57.5003C63.914 57.5003 74 47.0705 74 34.2503C74 21.4302 63.9145 11 51.517 11ZM9.47869 20.8961C9.41026 20.7735 9.37555 20.6778 9.35886 20.613C9.42133 20.5954 9.51902 20.5788 9.65587 20.5788H18.9609C16.1507 21.9998 13.6632 23.3886 11.5654 24.633L9.47869 20.8961ZM9.65604 47.9257C9.50199 47.9257 9.40497 47.9042 9.35026 47.8857C9.36051 47.8184 9.39191 47.6979 9.48712 47.5224L11.4922 43.8237C13.6075 45.0806 16.1226 46.4866 18.9693 47.9257H9.65604ZM47.5251 58.8967C47.5251 59.6506 46.9318 60.2641 46.2028 60.2641H33.0248C32.2957 60.2641 31.7025 59.6506 31.7025 58.8967V53.457C36.5647 55.2038 42.1057 56.7457 47.5251 57.2899V58.8967ZM51.517 54.7654C36.5511 54.7654 16.7451 44.5937 6.64455 37.5031V30.9972C16.7451 23.9065 36.5511 13.7347 51.517 13.7347C62.4564 13.7347 71.3559 22.9379 71.3559 34.2501C71.3559 45.5624 62.4564 54.7654 51.517 54.7654Z" fill="url(#paint1_angular)" style="mix-blend-mode:lighten"/>
<path d="M66.968 35.1524C65.1758 27.0062 57.608 20.5255 48.1367 19.026C47.1539 18.8704 46.2106 19.4301 46.0301 20.2761C45.8495 21.122 46.4996 21.9341 47.4822 22.0896C55.4949 23.3581 61.8967 28.8406 63.4128 35.732C63.5774 36.4792 64.3361 37 65.1885 37C65.3 37 65.4135 36.991 65.527 36.9725C66.5089 36.8125 67.1541 35.9977 66.968 35.1524Z" fill="url(#paint2_linear)"/>
</g>
<defs>
<filter id="filter0_d" x="0" y="11" width="78" height="59.9988" filterUnits="userSpaceOnUse" color-interpolation-filters="sRGB">
<feFlood flood-opacity="0" result="BackgroundImageFix"/>
<feColorMatrix in="SourceAlpha" type="matrix" values="0 0 0 0 0 0 0 0 0 0 0 0 0 0 0 0 0 0 127 0"/>
<feOffset dy="4"/>
<feGaussianBlur stdDeviation="2"/>
<feColorMatrix type="matrix" values="0 0 0 0 0 0 0 0 0 0 0 0 0 0 0 0 0 0 0.25 0"/>
<feBlend mode="normal" in2="BackgroundImageFix" result="effect1_dropShadow"/>
<feBlend mode="normal" in="SourceGraphic" in2="effect1_dropShadow" result="shape"/>
</filter>
<linearGradient id="paint0_linear" x1="38.5" y1="0" x2="38.5" y2="75" gradientUnits="userSpaceOnUse">
<stop stop-color="#AB03AE"/>
<stop offset="0.947917" stop-color="#4403AE"/>
</linearGradient>
<radialGradient id="paint1_angular" cx="0" cy="0" r="1" gradientUnits="userSpaceOnUse" gradientTransform="translate(39 36.9994) rotate(90) scale(25.9994 96.0365)">
<stop offset="0.540512" stop-color="#FF0099"/>
<stop offset="0.994792" stop-color="#00E0FF"/>
</radialGradient>
<linearGradient id="paint2_linear" x1="49.5" y1="20.5" x2="65" y2="35" gradientUnits="userSpaceOnUse">
<stop stop-color="#FF0099"/>
<stop offset="1" stop-color="#FF4BB7"/>
</linearGradient>
</defs>
</svg>
